#!OML:ASF E:\motion texture\Top Level 1\Subject 1\Session 1\male.ASF
:FULLY-SPECIFIED
:DEGREES
472
root -35.1555 17.8505 4.51641 3.29644 -85.6 1.414
lowerback -2.17729 2.61481 -0.909143
upperback -0.855387 3.49015 1.15338
thorax 0.215925 1.74563 1.76688
lowerneck -17.3817 0.626602 -3.52526
upperneck 20.5392 0.500853 5.16902
head 9.31118 0.491863 2.43078
rclavicle 1.40267e-014 3.97569e-016
rhumerus -9.45787 24.4585 -84.6248
rradius 88.1115
rwrist 15.4866
rhand -16.8935 -21.7058
rfingers 7.12502
rthumb 9.33813 -51.4789
lclavicle 1.40267e-014 3.97569e-016
lhumerus -20.707 -11.8593 93.5791
lradius 62.6856
lwrist -9.74227
lhand -10.6888 27.9304
lfingers 7.12502
lthumb 15.3202 57.343
rfemur -31.1702 -10.74 17.9132
rtibia 31.8124
rfoot -4.42049 -18.0225
rtoes 7.09773
lfemur -3.10573 -6.69379 -20.874
ltibia 19.3239
lfoot -13.3061 -0.184277
ltoes -8.96283
473
root -35.3015 17.8404 4.49803 2.76866 -85.3975 2.02287
lowerback -2.20438 2.57871 -0.93421
upperback -0.86302 3.44236 1.1761
thorax 0.222141 1.72176 1.80431
lowerneck -17.3378 0.589254 -3.53999
upperneck 20.4072 0.445569 5.22149
head 9.2598 0.471292 2.44133
rclavicle -2.60532e-014 3.57812e-015
rhumerus -8.79993 24.8084 -84.2877
rradius 88.529
rwrist 15.8003
rhand -16.8174 -21.3558
rfingers 7.12502
rthumb 9.41149 -51.1257
lclavicle -2.60532e-014 3.57812e-015
lhumerus -20.0399 -12.5339 93.6495
lradius 63.6571
lwrist -9.41018
lhand -10.613 27.8507
lfingers 7.12502
lthumb 15.3933 57.2577
rfemur -31.196 -10.3325 17.6808
rtibia 30.334
rfoot -4.32189 -17.9317
rtoes 6.93717
lfemur -2.76896 -6.73201 -20.8529
ltibia 19.4928
lfoot -13.5294 -0.311246
ltoes -9.51159
474
root -35.4484 17.8301 4.47865 2.41555 -85.1982 2.45529
lowerback -2.23168 2.54468 -0.948136
upperback -0.872999 3.39706 1.20033
thorax 0.226609 1.69911 1.83703
lowerneck -17.2911 0.550343 -3.55723
upperneck 20.2739 0.388743 5.27461
head 9.20772 0.449744 2.4523
rclavicle -3.57812e-015 -3.97569e-015
rhumerus -8.11459 25.1473 -83.9331
rradius 88.943
rwrist 16.1019
rhand -16.7451 -21.0167
rfingers 7.12502
rthumb 9.48126 -50.7834
lclavicle -3.57812e-015 -3.97569e-015
lhumerus -19.3586 -13.1748 93.7027
lradius 64.6172
lwrist -9.06158
lhand -10.5293 27.7921
lfingers 7.12502
lthumb 15.4739 57.1928
rfemur -31.1979 -9.88474 17.4502
rtibia 28.9426
rfoot -4.20615 -17.8776
rtoes 6.80929
lfemur -2.45844 -6.77186 -20.8109
ltibia 19.7095
lfoot -13.7332 -0.444041
ltoes -10.0964
475
root -35.5961 17.8198 4.45832 2.21599 -85.0042 2.72931
lowerback -2.25816 2.51359 -0.950486
upperback -0.883432 3.35539 1.22614
thorax 0.230641 1.67824 1.86492
lowerneck -17.2452 0.509545 -3.57559
upperneck 20.1414 0.329938 5.32685
head 9.15628 0.426994 2.46297
rclavicle 5.1684e-014 7.95139e-016
rhumerus -7.40024 25.4728 -83.5605
rradius 89.3514
rwrist 16.3885
rhand -16.679 -20.6895
rfingers 7.12502
rthumb 9.54511 -50.4533
lclavicle 5.1684e-014 7.95139e-016
lhumerus -18.6601 -13.7838 93.74
lradius 65.5616
lwrist -8.69648
lhand -10.4425 27.7428
lfingers 7.12502
lthumb 15.5575 57.137
rfemur -31.1748 -9.40075 17.2242
rtibia 27.6457
rfoot -4.07859 -17.8525
rtoes 6.71156
lfemur -2.17198 -6.81238 -20.7485
ltibia 19.9754
lfoot -13.9146 -0.583123
ltoes -10.7209
476
root -35.7448 17.8096 4.43701 2.16008 -84.8154 2.85409
lowerback -2.28203 2.48499 -0.940302
upperback -0.895883 3.31671 1.25347
thorax 0.231699 1.65886 1.88723
lowerneck -17.1968 0.466939 -3.59685
upperneck 20.0103 0.268863 5.38119
head 9.10509 0.403037 2.47458
rclavicle -3.78064e-014 -1.19271e-014
rhumerus -6.65978 25.7838 -83.1723
rradius 89.7515
rwrist 16.6592
rhand -16.6219 -20.3788
rfingers 7.12502
rthumb 9.60014 -50.14
lclavicle -3.78064e-014 -1.19271e-014
lhumerus -17.9458 -14.3611 93.7635
lradius 66.4853
lwrist -8.31453
lhand -10.3565 27.7022
lfingers 7.12502
lthumb 15.6403 57.0899
rfemur -31.1287 -8.88462 17.0064
rtibia 26.4473
rfoot -3.94475 -17.8475
rtoes 6.65988
lfemur -1.91331 -6.85256 -20.6641
ltibia 20.2965
lfoot -14.0699 -0.731357
ltoes -11.3853
477
root -35.8944 17.7996 4.41475 2.23519 -84.6309 2.84223
lowerback -2.30512 2.45782 -0.918473
upperback -0.908486 3.27962 1.28314
thorax 0.232648 1.64024 1.90542
lowerneck -17.1491 0.42346 -3.61796
upperneck 19.8801 0.207002 5.434
head 9.05454 0.378458 2.48559
rclavicle -5.41688e-015 -8.74653e-015
rhumerus -5.89138 26.0802 -82.7687
rradius 90.1431
rwrist 16.9111
rhand -16.5712 -20.0852
rfingers 7.12502
rthumb 9.64912 -49.8442
lclavicle -5.41688e-015 -8.74653e-015
lhumerus -17.213 -14.9061 93.7737
lradius 67.3876
lwrist -7.91465
lhand -10.2657 27.677
lfingers 7.12502
lthumb 15.7277 57.0579
rfemur -31.062 -8.34477 16.801
rtibia 25.3515
rfoot -3.80283 -17.856
rtoes 6.65562
lfemur -1.68471 -6.8926 -20.5577
ltibia 20.6744
lfoot -14.192 -0.891607
ltoes -12.0739
478
root -36.0449 17.79 4.3915 2.43839 -84.4502 2.69611
lowerback -2.32868 2.43278 -0.885732
upperback -0.920151 3.24506 1.31635
thorax 0.235129 1.62282 1.92124
lowerneck -17.1021 0.377893 -3.64198
upperneck 19.7513 0.142938 5.48754
head 9.00489 0.352614 2.49715
rclavicle -3.80673e-014 3.57812e-015
rhumerus -5.09286 26.3587 -82.3462
rradius 90.5234
rwrist 17.1405
rhand -16.5287 -19.8122
rfingers 7.12502
rthumb 9.69011 -49.5693
lclavicle -3.80673e-014 3.57812e-015
lhumerus -16.4597 -15.4225 93.7747
lradius 68.264
lwrist -7.4957
lhand -10.1716 27.6628
lfingers 7.12502
lthumb 15.8184 57.0365
rfemur -30.9767 -7.78654 16.6131
rtibia 24.3606
rfoot -3.65499 -17.8762
rtoes 6.70306
lfemur -1.48946 -6.93252 -20.4273
ltibia 21.1117
lfoot -14.2747 -1.06629
ltoes -12.7789
479
root -36.1963 17.7807 4.36731 2.78537 -84.2746 2.39945
lowerback -2.35008 2.40998 -0.839135
upperback -0.933096 3.21307 1.35406
thorax 0.235503 1.60665 1.93382
lowerneck -17.0533 0.331774 -3.66813
upperneck 19.625 0.0783308 5.5422
head 8.95589 0.326335 2.50943
rclavicle -8.46077e-015 0
rhumerus -4.27097 26.6204 -81.9091
rradius 90.8913
rwrist 17.3505
rhand -16.5002 -19.5644
rfingers 7.12502
rthumb 9.71756 -49.3202
lclavicle -8.46077e-015 0
lhumerus -15.6894 -15.9096 93.7688
lradius 69.1126
lwrist -7.05448
lhand -10.0703 27.6704
lfingers 7.12502
lthumb 15.9159 57.0364
rfemur -30.8764 -7.21669 16.4504
rtibia 23.4787
rfoot -3.50245 -17.8978
rtoes 6.79899
lfemur -1.33017 -6.97239 -20.2704
ltibia 21.6096
lfoot -14.3113 -1.25529
ltoes -13.5007
480
root -36.3487 17.772 4.3422 3.27725 -84.1018 1.95069
lowerback -2.36838 2.38896 -0.775793
upperback -0.945503 3.18296 1.39558
thorax 0.235309 1.59136 1.94087
lowerneck -17.0069 0.282905 -3.69409
upperneck 19.5003 0.0104612 5.59479
head 8.90817 0.29825 2.52066
rclavicle 3.81418e-015 1.59028e-015
rhumerus -3.4215 26.8603 -81.4572
rradius 91.2445
rwrist 17.5407
rhand -16.485 -19.3409
rfingers 7.12502
rthumb 9.73221 -49.096
lclavicle 3.81418e-015 1.59028e-015
lhumerus -14.8956 -16.371 93.7552
lradius 69.9275
lwrist -6.59297
lhand -9.97192 27.6868
lfingers 7.12502
lthumb 16.0107 57.0452
rfemur -30.7616 -6.64524 16.3192
rtibia 22.7053
rfoot -3.34743 -17.9113
rtoes 6.94911
lfemur -1.20875 -7.0141 -20.0858
ltibia 22.1687
lfoot -14.2949 -1.4594
ltoes -14.2406
481
root -36.5019 17.764 4.31617 3.89749 -83.9308 1.3663
lowerback -2.38471 2.36879 -0.697038
upperback -0.957454 3.15353 1.44123
thorax 0.23504 1.57633 1.94346
lowerneck -16.9638 0.233026 -3.72189
upperneck 19.3795 -0.0587253 5.64922
head 8.86263 0.269551 2.53282
rclavicle -2.43511e-014 3.18055e-015
rhumerus -2.54534 27.0779 -80.9918
rradius 91.5806
rwrist 17.7092
rhand -16.4824 -19.1401
rfingers 7.12502
rthumb 9.73477 -48.8951
lclavicle -2.43511e-014 3.18055e-015
lhumerus -14.0821 -16.8061 93.7361
lradius 70.7098
lwrist -6.10839
lhand -9.87097 27.7188
lfingers 7.12502
lthumb 16.1079 57.0694
rfemur -30.6348 -6.08106 16.2235
rtibia 22.0422
rfoot -3.19069 -17.9093
rtoes 7.15007
lfemur -1.12776 -7.05838 -19.8749
ltibia 22.79
lfoot -14.2195 -1.67804
ltoes -15.0013
482
root -36.6559 17.7566 4.28922 4.66803 -83.7611 0.624572
lowerback -2.3955 2.34897 -0.599986
upperback -0.971627 3.12402 1.49222
thorax 0.230051 1.56123 1.94097
lowerneck -16.9177 0.182352 -3.74842
upperneck 19.2607 -0.129041 5.70166
head 8.81744 0.240049 2.54398
rclavicle 1.22998e-014 7.95139e-015
rhumerus -1.6476 27.2733 -80.5167
rradius 91.8992
rwrist 17.8514
rhand -16.49 -18.9565
rfingers 7.12502
rthumb 9.72745 -48.7118
lclavicle 1.22998e-014 7.95139e-015
lhumerus -13.2502 -17.2148 93.7126
lradius 71.4551
lwrist -5.59913
lhand -9.76587 27.7755
lfingers 7.12502
lthumb 16.2091 57.1178
rfemur -30.4983 -5.53054 16.1714
rtibia 21.488
rfoot -3.03342 -17.8851
rtoes 7.39904
lfemur -1.09103 -7.10359 -19.6334
ltibia 23.4751
lfoot -14.0792 -1.91047
ltoes -15.7627
483
root -36.8107 17.75 4.26143 5.56051 -83.5924 -0.246725
lowerback -2.40206 2.33001 -0.485001
upperback -0.986289 3.09516 1.54716
thorax 0.222867 1.54636 1.93232
lowerneck -16.874 0.130565 -3.77512
upperneck 19.1464 -0.201173 5.75519
head 8.77444 0.209723 2.55546
rclavicle -1.635e-014 8.74653e-015
rhumerus -0.728419 27.4497 -80.0319
rradius 92.1962
rwrist 17.9947
rhand -16.536 -18.8262
rfingers 7.12502
rthumb 9.683 -48.5836
lclavicle -1.635e-014 8.74653e-015
lhumerus -12.3983 -17.6005 93.6854
lradius 72.162
lwrist -5.06257
lhand -9.65664 27.8572
lfingers 7.12502
lthumb 16.3143 57.1909
rfemur -30.3512 -5.00294 16.165
rtibia 21.0394
rfoot -2.87723 -17.8281
rtoes 7.69675
lfemur -1.09869 -7.14976 -19.3651
ltibia 24.2239
lfoot -13.8713 -2.15296
ltoes -16.5094
484
root -36.9663 17.7441 4.23277 6.59115 -83.4243 -1.26369
lowerback -2.40393 2.31144 -0.351511
upperback -1.00166 3.06627 1.6082
thorax 0.212917 1.53138 1.91934
lowerneck -16.8313 0.0780793 -3.80099
upperneck 19.0365 -0.274456 5.80795
head 8.73333 0.178741 2.56652
rclavicle 4.88762e-014 1.78906e-014
rhumerus 0.212838 27.6021 -79.5373
rradius 92.4696
rwrist 18.1207
rhand -16.6053 -18.7139
rfingers 7.12502
rthumb 9.61615 -48.4744
lclavicle 4.88762e-014 1.78906e-014
lhumerus -11.5276 -17.9617 93.657
lradius 72.8291
lwrist -4.49927
lhand -9.54441 27.9615
lfingers 7.12502
lthumb 16.4223 57.2864
rfemur -30.1956 -4.50255 16.2107
rtibia 20.694
rfoot -2.72359 -17.7341
rtoes 8.04005
lfemur -1.15453 -7.1963 -19.0666
ltibia 25.0387
lfoot -13.5976 -2.40756
ltoes -17.2215
485
root -37.1224 17.7392 4.20332 7.73701 -83.2562 -2.40359
lowerback -2.40137 2.29272 -0.201038
upperback -1.01835 3.03671 1.67485
thorax 0.199666 1.51597 1.90239
lowerneck -16.7855 0.0262307 -3.82452
upperneck 18.9303 -0.347423 5.85931
head 8.69299 0.147771 2.57682
rclavicle 2.26863e-014 6.75868e-015
rhumerus 1.17312 27.7333 -79.036
rradius 92.7188
rwrist 18.2339
rhand -16.7003 -18.6351
rfingers 7.12502
rthumb 9.52453 -48.3999
lclavicle 2.26863e-014 6.75868e-015
lhumerus -10.639 -18.2988 93.6281
lradius 73.4527
lwrist -3.90909
lhand -9.43131 28.0876
lfingers 7.12502
lthumb 16.5312 57.4034
rfemur -30.0309 -4.03681 16.3097
rtibia 20.4474
rfoot -2.57403 -17.5969
rtoes 8.42556
lfemur -1.2597 -7.24205 -18.7407
ltibia 25.9204
lfoot -13.2632 -2.66675
ltoes -17.9027
486
root -37.2793 17.7351 4.17327 8.9813 -83.09 -3.6508
lowerback -2.39447 2.27493 -0.033468
upperback -1.03362 3.00792 1.74692
thorax 0.185923 1.5008 1.8813
lowerneck -16.7438 -0.0258529 -3.84649
upperneck 18.83 -0.420888 5.90915
head 8.65556 0.116487 2.58647
rclavicle 3.4017e-014 3.06128e-014
rhumerus 2.15548 27.8401 -78.5263
rradius 92.9405
rwrist 18.3362
rhand -16.8236 -18.5821
rfingers 7.12502
rthumb 9.40557 -48.3522
lclavicle 3.4017e-014 3.06128e-014
lhumerus -9.72889 -18.6133 93.6001
lradius 74.0301
lwrist -3.29146
lhand -9.31836 28.2333
lfingers 7.12502
lthumb 16.64 57.54
rfemur -29.8556 -3.61166 16.4631
rtibia 20.2945
rfoot -2.42938 -17.4089
rtoes 8.84159
lfemur -1.41283 -7.28597 -18.3909
ltibia 26.867
lfoot -12.8691 -2.91855
ltoes -18.5534
